# xmcd CD database file
#
# Track frame offsets:
#	150
#	19142
#	43315
#
# Disc length: 829 seconds
#
# Revision: 1
# Processed by: cddbd v1.5.1PL2 Copyright (c) Steve Scherf et al.
# Submitted via: CDex 1.60beta1-cs1
#
DISCID=21033b03
DTITLE=内田有紀 - 明日は明日の風が吹く
DYEAR=1995
DGENRE=JPop
TTITLE0=明日は明日の風が吹く
TTITLE1=「ありがとう」
TTITLE2=明日は明日の風が吹く (オリジナルカラオケ)
EXTD=YEAR: 1995
EXTT0=
EXTT1=
EXTT2=
PLAYORDER=
